# xmcd
#
# Track frame offsets: 
#        150
#        17392
#        41065
#        51362
#        71992
#        93742
#        122567
#        146225
#        166962
#        182062
#        198192
#        223920
#
# Disc length: 3253 seconds
#
# Revision: 2
# Processed by: cddbd v1.5.1PL2 Copyright (c) Steve Scherf et al.
# Submitted via: ExactAudioCopy v0.95b3
#
DISCID=b70cb30c
DTITLE=Various Artist - BluesQuest
DYEAR=1999
DGENRE=Blues
TTITLE0=Terry Evans - Get Up, Get Ready
TTITLE1=Doug MacLeod - One Good Woman
TTITLE2=Joe Beard - Dirty Groundhog
TTITLE3=Mighty Sam McClain - Too Proud
TTITLE4=Pinetop Perkins - Country Girl
TTITLE5=Bruce Katz Band - The Prowler
TTITLE6=Sherman Robertson - Going Back Home
TTITLE7=Doug MacLeod - Old Country Road
TTITLE8=Robert Lucas - 50 Lbs Of Bone
TTITLE9=Joe Beard - See See Rider
TTITLE10=Roinnie Earl - Ronnie's Blues
TTITLE11=Mighty Sam McClain - Somebody Help Me
EXTD=YEAR: 1999 ID3G: 0
EXTT0=
EXTT1=
EXTT2=
EXTT3=
EXTT4=
EXTT5=
EXTT6=
EXTT7=
EXTT8=
EXTT9=
EXTT10=
EXTT11=
PLAYORDER=
